<?xml version="1.0" standalone="no"?>
<!DOCTYPE svg PUBLIC "-//W3C//DTD SVG 20010904//EN"
 "http://www.w3.org/TR/2001/REC-SVG-20010904/DTD/svg10.dtd">
<svg version="1.0" xmlns="http://www.w3.org/2000/svg"
 width="2000.000000pt" height="2000.000000pt" viewBox="0 0 2000.000000 2000.000000"
 preserveAspectRatio="xMidYMid meet">

<g transform="translate(0.000000,2000.000000) scale(0.100000,-0.100000)"
fill="#000000" stroke="none">
<path d="M9483 18138 c-275 -480 -867 -1507 -1313 -2283 -447 -775 -1111
-1929 -1476 -2562 -365 -634 -664 -1157 -664 -1163 0 -6 9 -23 19 -38 11 -15
248 -423 527 -907 279 -484 664 -1150 854 -1480 861 -1490 1454 -2516 1705
-2950 954 -1651 1297 -2246 1294 -2249 -11 -10 -4156 -15 -4748 -6 -468 7
-688 7 -695 0 -7 -7 -5 -19 7 -38 17 -26 324 -540 900 -1502 l272 -455 3915 4
c2153 2 3919 7 3923 11 7 6 -5276 9111 -5538 9546 l-43 72 330 573 c181 316
536 935 790 1377 253 441 463 802 467 802 3 0 62 -98 130 -218 111 -194 1307
-2276 1696 -2952 84 -146 336 -584 560 -975 429 -748 451 -785 469 -785 16 0
1181 2040 1179 2065 -1 16 -1658 2899 -3840 6685 -142 246 -174 295 -194 298
-22 2 -69 -76 -526 -870z"/>
<path d="M4551 9572 c-211 -367 -432 -750 -756 -1312 -151 -261 -1252 -2175
-1843 -3200 -261 -454 -516 -897 -567 -985 -635 -1101 -895 -1556 -895 -1565
0 -7 384 -10 1198 -10 l1197 0 1535 2672 c844 1469 1545 2690 1558 2714 l22
44 -592 1025 c-389 673 -597 1025 -607 1025 -10 0 -101 -148 -250 -408z"/>
<path d="M15199 9883 c-17 -32 -280 -483 -582 -1003 -303 -520 -557 -956 -565
-970 -14 -24 -6 -39 190 -380 113 -195 382 -663 598 -1040 216 -377 554 -964
750 -1305 716 -1246 1454 -2532 1494 -2603 l41 -74 1195 7 c657 3 1196 8 1198
10 2 2 -365 644 -815 1427 -2619 4550 -3449 5988 -3460 5988 -6 0 -26 -26 -44
-57z"/>
<path d="M10005 1900 c-143 -23 -253 -78 -350 -175 -38 -39 -85 -95 -102 -125
-120 -204 -147 -540 -63 -790 57 -170 174 -308 320 -378 112 -53 173 -66 305
-66 194 1 336 56 460 178 142 141 215 341 215 591 0 331 -137 592 -370 703
-47 22 -109 45 -138 51 -78 16 -209 21 -277 11z m234 -145 c181 -43 315 -188
368 -400 24 -98 24 -344 0 -435 -67 -248 -220 -393 -440 -416 -254 -26 -469
136 -543 411 -21 81 -29 272 -15 365 55 353 315 549 630 475z"/>
<path d="M16255 1900 c-143 -23 -253 -78 -350 -175 -38 -39 -85 -95 -102 -125
-120 -204 -147 -540 -63 -790 57 -170 174 -308 320 -378 112 -53 173 -66 305
-66 194 1 336 56 460 178 142 141 215 341 215 591 0 331 -137 592 -370 703
-47 22 -109 45 -138 51 -78 16 -209 21 -277 11z m234 -145 c181 -43 315 -188
368 -400 24 -98 24 -344 0 -435 -67 -248 -220 -393 -440 -416 -254 -26 -469
136 -543 411 -21 81 -29 272 -15 365 55 353 315 549 630 475z"/>
<path d="M3237 1884 c-91 -22 -167 -63 -228 -123 -73 -74 -102 -145 -103 -256
-1 -103 21 -169 80 -234 81 -90 161 -125 429 -186 88 -20 183 -47 210 -59 104
-47 155 -118 158 -221 4 -189 -133 -298 -373 -298 -128 1 -210 27 -280 89 -62
56 -90 108 -97 181 l-6 55 -56 -6 c-100 -12 -111 -16 -111 -39 1 -76 53 -196
117 -267 87 -97 239 -150 435 -150 252 0 415 80 492 240 29 62 31 71 31 185 0
147 -19 200 -98 271 -87 78 -147 102 -416 164 -275 63 -351 118 -359 258 -5
84 21 146 81 197 146 125 444 103 554 -41 14 -19 33 -59 42 -89 10 -31 21 -56
24 -57 28 -1 148 16 152 22 9 15 -32 129 -65 180 -57 88 -160 156 -282 185
-79 18 -253 18 -331 -1z"/>
<path d="M13510 1814 l0 -79 282 3 c156 1 354 3 441 5 86 1 157 1 157 0 0 -2
-15 -20 -33 -40 -19 -21 -202 -258 -407 -528 -205 -269 -404 -527 -442 -572
l-68 -82 0 -65 0 -66 553 0 c303 0 569 -3 590 -6 l37 -7 0 79 0 79 -490 -3
-491 -3 63 78 c35 43 227 294 428 557 201 264 386 503 413 532 46 51 47 53 47
118 l0 66 -494 0 c-271 0 -514 3 -540 6 l-46 7 0 -79z"/>
<path d="M911 1838 c-18 -59 -515 -1288 -554 -1368 -18 -36 -33 -68 -35 -72
-2 -5 41 -8 96 -8 l100 0 16 64 c8 35 44 135 79 222 l64 159 344 3 344 2 49
-120 c27 -66 63 -166 81 -223 l32 -102 98 -3 c76 -2 96 0 92 10 -3 7 -24 56
-47 108 -64 147 -550 1347 -550 1359 0 7 -33 11 -98 11 l-99 0 -12 -42z m293
-573 c58 -148 106 -273 106 -277 0 -5 -131 -8 -291 -8 -229 0 -290 3 -286 13
38 95 267 689 267 692 0 2 5 16 11 32 10 27 13 23 49 -77 21 -58 86 -226 144
-375z"/>
<path d="M7195 1136 l0 -746 85 0 85 0 -3 305 -4 305 259 0 c336 0 412 17 522
116 95 85 137 204 129 365 -10 197 -96 311 -281 372 -57 19 -92 21 -427 25
l-365 4 0 -746z m765 578 c49 -23 103 -73 125 -115 25 -47 37 -154 25 -222
-15 -79 -40 -127 -90 -169 -73 -63 -113 -71 -402 -76 l-258 -4 0 307 0 306
278 -3 c255 -3 281 -5 322 -24z"/>
<path d="M12045 1135 l0 -745 85 0 85 0 0 745 0 745 -85 0 -85 0 0 -745z"/>
<path d="M18308 1848 c4 -18 7 -339 7 -713 0 -374 -3 -695 -7 -712 l-7 -33 87
0 87 0 -2 253 c-4 405 -8 1036 -7 1034 1 -1 26 -42 55 -92 29 -49 208 -324
399 -610 190 -286 352 -535 359 -552 l13 -33 102 0 101 0 0 697 c0 384 2 718
5 743 l5 45 -86 3 -85 3 3 -238 c5 -393 9 -1063 7 -1063 -1 0 -19 30 -40 67
-20 37 -202 314 -403 617 -202 303 -373 566 -380 584 l-13 32 -104 0 -103 0 7
-32z"/>
<path d="M5060 160 l0 -40 490 0 490 0 0 40 0 40 -490 0 -490 0 0 -40z"/>
</g>
</svg>
